<svg xmlns="http://www.w3.org/2000/svg" viewBox="0 0 122.7 122.7">
    <defs>
        <style>
            .a {
                fill: #ffeaf2;
                stroke: #e65c64;
                stroke-miterlimit: 10;
                stroke-width: 6px;
            }

            .b {
                fill: #e65c64;
            }

            .c {
                fill: #f26d76;
            }

            .d {
                fill: #ffc033;
            }

            .e {
                fill: #43bfbf;
            }

            .f {
                fill: #36d9d9;
            }

            .g {
                fill: #f9a926;
            }
        </style>
    </defs>
    <circle class="a" cx="61.35" cy="61.35" r="58.35" />
    <path class="b" d="M78.6,70.44H69.54a2.59,2.59,0,0,1,0-5.18H78.6a2.59,2.59,0,1,1,0,5.18Z" />
    <path class="c"
        d="M54.89,55.79A2.59,2.59,0,0,1,52.3,53.2h0V44.15a2.59,2.59,0,0,1,5.18,0V53.2A2.59,2.59,0,0,1,54.89,55.79Z" />
    <path class="d"
        d="M59,23.9a7.77,7.77,0,1,0,0,11h0a7.76,7.76,0,0,0,0-11Zm-3.65,7.33a2.57,2.57,0,0,1-3.63,0l0,0a2.61,2.61,0,0,1,0-3.66,2.59,2.59,0,0,1,3.66,3.65Z" />
    <circle class="e" cx="87.86" cy="53.2" r="2.59" />
    <circle class="f" cx="69.54" cy="34.88" r="2.59" />
    <circle class="e" cx="87.86" cy="82.5" r="2.59" />
    <circle class="f" cx="40.24" cy="34.88" r="2.59" />
    <path class="d"
        d="M90.46,29.7a2.59,2.59,0,0,1-2.6-2.59h0V24.52A2.59,2.59,0,0,1,93,24.26a1.13,1.13,0,0,1,0,.26v2.59A2.59,2.59,0,0,1,90.46,29.7Z" />
    <path class="g"
        d="M90.46,42.65a2.59,2.59,0,0,1-2.6-2.59h0V37.47A2.59,2.59,0,1,1,93,37.21a1.13,1.13,0,0,1,0,.26v2.59A2.59,2.59,0,0,1,90.46,42.65Z" />
    <path class="d" d="M85.27,34.88H82.68a2.59,2.59,0,0,1,0-5.18h2.59a2.59,2.59,0,0,1,.26,5.18Z" />
    <path class="g" d="M98.23,34.88h-2.6a2.59,2.59,0,0,1-.26-5.18h2.86a2.59,2.59,0,0,1,0,5.18Z" />
    <path class="g"
        d="M98.75,61.89a7.78,7.78,0,1,0,0,11h0a7.76,7.76,0,0,0,0-11Zm-3.66,7.33a2.55,2.55,0,0,1-3.62,0l0,0a2.67,2.67,0,0,1,0-3.66,2.59,2.59,0,0,1,3.67,3.65Z" />
    <path class="d"
        d="M63.29,62a2.59,2.59,0,0,1-1.83-4.42L77.63,41.45a2.59,2.59,0,0,1,3.66,3.66L65.12,61.29A2.6,2.6,0,0,1,63.29,62Z" />
    <path class="g" d="M61.46,61.29a2.61,2.61,0,0,0,3.66,0L81.29,45.11a2.59,2.59,0,0,0,0-3.66L61.46,61.29Z" />
    <path class="c"
        d="M41.79,87.73v7.33l-16.66,5.86a2.59,2.59,0,0,1-3.31-1.56,2.62,2.62,0,0,1,0-1.77L27.7,80.93H35L38.4,84.3Z" />
    <path class="b" d="M41.79,87.73v7.33l-16.66,5.86a2.56,2.56,0,0,1-2.67-.6l16-16Z" />
    <path class="c"
        d="M34.4,71.17l17.19,17.2H60.7l9.7-3.44A2.61,2.61,0,0,0,72,81.6h0L41.1,50.76a2.57,2.57,0,0,0-3.31,1.51l0,.06L34.37,62v9.2Z" />
    <path class="b" d="M51.59,88.37H60.7l9.7-3.44A2.61,2.61,0,0,0,72,81.6h0L56.54,66.16,43,79.72Z" />
    <path class="d" d="M34.37,62,27.7,81,41.8,95h.05l18.89-6.67Z" />
    <polygon class="g" points="41.79 95.04 41.84 95.02 60.73 88.35 47.56 75.18 34.75 88 41.79 95.04" />
    <path class="f"
        d="M73.21,88.76A2.56,2.56,0,0,1,71.38,88L34.73,51.35a2.59,2.59,0,0,1,3.66-3.66L75,84.34a2.6,2.6,0,0,1-1.83,4.43Z" />
    <path class="e" d="M71.38,88A2.59,2.59,0,0,0,75,84.34L56.72,66l-3.66,3.66Z" />
</svg>